<?xml version="1.0" encoding="UTF-8"?>
<svg version="1.1" xmlns="http://www.w3.org/2000/svg" width="500" height="500">
<path d="M0 0 C165 0 330 0 500 0 C500 165 500 330 500 500 C335 500 170 500 0 500 C0 335 0 170 0 0 Z " fill="#F5F3EF" transform="translate(0,0)"/>
<path d="M0 0 C1.46928906 0.00056505 2.93857869 0.00024572 4.40786743 -0.00088501 C8.37213433 -0.00145586 12.33627874 0.01025485 16.30051732 0.02426291 C20.45248995 0.03681512 24.60446579 0.03794429 28.75645447 0.04031372 C36.6079016 0.04651534 44.45929264 0.06290823 52.31071514 0.0830127 C61.25391387 0.10541284 70.19711537 0.11637546 79.1403352 0.12640357 C97.52710737 0.1472757 115.91380272 0.18393537 134.30053711 0.22705078 C134.30053711 15.40705078 134.30053711 30.58705078 134.30053711 46.22705078 C129.85907227 46.22592285 125.41760742 46.22479492 120.84155273 46.22363281 C106.16914434 46.22426026 91.49694268 46.25740822 76.82462311 46.30732918 C67.92851133 46.3368029 59.03263813 46.35515717 50.13647461 46.34716797 C42.38087052 46.34023144 34.62563578 46.35432805 26.87012243 46.39348686 C22.76502373 46.41348479 18.66050472 46.42308179 14.55537415 46.40747452 C10.68743775 46.39310179 6.82060667 46.4069572 2.95281219 46.44200325 C1.53714209 46.44993937 0.12137154 46.44776506 -1.29425812 46.43444252 C-8.83315733 46.3695223 -14.38295137 46.51987223 -20.26371002 51.55109978 C-23.81129447 55.6921869 -24.13673587 59.3968414 -24.01196289 64.69189453 C-23.37718467 69.84153288 -21.12658147 73.01028098 -17.16116333 76.39122009 C-12.59289856 78.81389092 -9.02775026 78.78020818 -3.93725586 78.7253418 C-2.48718895 78.73362 -2.48718895 78.73362 -1.00782776 78.74206543 C1.08573504 78.7513708 3.17935444 78.75150273 5.27292252 78.74347115 C8.59547272 78.73081563 11.91719515 78.74215737 15.23971558 78.75950623 C21.10413492 78.78621116 26.96835114 78.79180231 32.83282471 78.79040527 C42.19708636 78.78817807 51.56109486 78.80251531 60.92525864 78.84599113 C64.18225365 78.85576616 67.43884507 78.847142 70.6958313 78.83729553 C89.44331975 78.85771664 104.95290768 81.38967032 119.05444336 94.94970703 C119.7956543 95.70123047 120.53686523 96.45275391 121.30053711 97.22705078 C121.94893555 97.86513672 122.59733398 98.50322266 123.26538086 99.16064453 C133.62651582 110.06590912 137.76629844 124.03233745 137.40600586 138.77001953 C137.37120117 139.58083984 137.33639648 140.39166016 137.30053711 141.22705078 C137.96053711 141.22705078 138.62053711 141.22705078 139.30053711 141.22705078 C139.30053711 200.29705078 139.30053711 259.36705078 139.30053711 320.22705078 C125.44053711 320.22705078 111.58053711 320.22705078 97.30053711 320.22705078 C97.30053711 307.68705078 97.30053711 295.14705078 97.30053711 282.22705078 C93.97056641 282.24276123 90.6405957 282.25847168 87.2097168 282.2746582 C76.17761495 282.3244839 65.14550798 282.35755158 54.11332321 282.3824873 C47.42794347 282.39790681 40.74268667 282.41928129 34.05737305 282.45336914 C27.5993868 282.48608985 21.14151158 282.50393064 14.68344879 282.51168251 C12.22602848 282.51720322 9.76861389 282.52798357 7.31124115 282.54424095 C3.85539361 282.56618391 0.39999837 282.56901064 -3.0559082 282.56762695 C-4.56211731 282.58380569 -4.56211731 282.58380569 -6.09875488 282.60031128 C-16.15968159 282.55704086 -25.65935228 280.44500476 -34.44946289 275.47705078 C-35.08577637 275.12344482 -35.72208984 274.76983887 -36.37768555 274.40551758 C-51.41246233 265.82603592 -59.86726625 251.91527782 -64.80493164 235.56689453 C-68.79896747 218.90769039 -66.00999214 200.45536159 -57.37915039 185.81298828 C-47.80951769 171.08020491 -35.12448307 161.86110134 -17.99534798 157.655056 C-13.88744117 156.8892487 -9.79765593 156.95268499 -5.63085938 156.97167969 C-4.16830719 156.96624901 -4.16830719 156.96624901 -2.6762085 156.96070862 C-0.57174549 156.95384668 1.53273518 156.95130314 3.63720894 156.95265579 C6.9709835 156.95362536 10.3044395 156.940629 13.63816833 156.92367554 C23.11210714 156.87752423 32.58601113 156.85278871 42.06005859 156.84619141 C47.86602965 156.84117461 53.67166469 156.81692193 59.4775219 156.78086472 C61.6850476 156.77107664 63.89261957 156.76872933 66.1001606 156.77403641 C69.18758194 156.78111369 72.27400144 156.76381227 75.36132812 156.74121094 C76.72136208 156.75346962 76.72136208 156.75346962 78.10887146 156.76597595 C84.00214593 156.68936401 87.46741661 155.65550054 92.30053711 152.22705078 C96.12839181 147.16440424 96.10843377 141.32712445 95.30053711 135.22705078 C92.94055067 130.14400308 90.42911192 128.28023063 85.30053711 126.22705078 C82.28245347 125.81247234 79.30307752 125.81976417 76.26025391 125.84228516 C74.92464668 125.834226 74.92464668 125.834226 73.5620575 125.82600403 C71.6338435 125.81624515 69.70558569 125.81327615 67.77734947 125.81636047 C64.70973934 125.82085947 61.6426999 125.8067741 58.57514954 125.78796387 C52.04612143 125.7512217 45.51715329 125.73750429 38.98803711 125.72705078 C31.45353354 125.71490894 23.91930771 125.69294234 16.38492775 125.64704895 C13.39132346 125.63365456 10.39808629 125.63761974 7.40446472 125.64245605 C-13.17268625 125.58596446 -32.01424617 123.56602714 -47.51977539 108.54345703 C-61.79110662 93.37697062 -66.27856769 76.9688466 -65.96899414 56.56689453 C-65.44665115 41.94901017 -58.64133983 27.57472034 -48.59008789 16.95751953 C-34.46567316 4.02959448 -18.64826286 -0.10099142 0 0 Z " fill="#5170FE" transform="translate(212.699462890625,108.77294921875)"/>
<path d="M0 0 C0 11.88 0 23.76 0 36 C-14.20404284 36.09042731 -28.40789399 36.16378929 -42.61215973 36.20724869 C-49.20802011 36.22810871 -55.80367306 36.25639817 -62.39941406 36.30175781 C-68.76661718 36.34527093 -75.13362096 36.36914904 -81.5009613 36.37950897 C-83.92820879 36.38689043 -86.35544557 36.40130467 -88.78260803 36.42292023 C-92.18669064 36.4520258 -95.58995327 36.45595286 -98.99414062 36.45410156 C-99.99395966 36.46848267 -100.99377869 36.48286377 -102.02389526 36.49768066 C-108.90838571 36.45726074 -114.51188927 35.28894963 -119.64694977 30.44708633 C-123.33563338 26.33165422 -123.75375764 22.03687347 -123.48046875 16.65234375 C-122.73548242 12.53977692 -121.15821945 9.72786867 -118 7 C-112.25203623 3.04129066 -108.06341629 2.4229343 -101.16845703 2.48583984 C-100.20653442 2.47871475 -99.24461182 2.47158966 -98.25354004 2.46424866 C-95.0880864 2.44502193 -91.92330488 2.45323833 -88.7578125 2.4609375 C-86.54734324 2.4510255 -84.33688223 2.43908234 -82.12643433 2.42520142 C-76.31350185 2.39286206 -70.50075771 2.38245004 -64.68774414 2.37835693 C-55.39157751 2.36959778 -46.09556553 2.33395616 -36.79952621 2.2861824 C-33.56185822 2.27364675 -30.32438766 2.27435126 -27.08670044 2.27645874 C-25.08790946 2.2698739 -23.08911981 2.26286676 -21.09033203 2.25537109 C-20.19861298 2.25949509 -19.30689392 2.26361908 -18.38815308 2.26786804 C-13.31638806 2.23550886 -8.72941976 1.67939632 -3.80932426 0.42852211 C-2 0 -2 0 0 0 Z " fill="#F2F1F0" transform="translate(311,309)"/>
<path d="M0 0 C5.88722875 2.80236608 10.63489699 7.29540356 13.74609375 13.0625 C15.66661522 18.92731826 15.53737889 26.36069666 13.34765625 32.15625 C9.74963945 38.15294467 5.63876055 43.69081178 -1.31640625 45.83203125 C-8.19281381 47.2291812 -15.55562645 47.30348231 -21.7109375 43.6796875 C-27.17343013 39.47415554 -30.74994372 34.98196468 -32.52734375 28.28125 C-33.39464577 21.00504255 -33.25719514 14.50573795 -29.23046875 8.22265625 C-21.65340161 -0.41450514 -11.04975926 -3.1424354 0 0 Z " fill="#0C0C0B" transform="translate(396.52734375,382.71875)"/>
</svg>
